%TF.GenerationSoftware,KiCad,Pcbnew,(5.1.7)-1*%
%TF.CreationDate,2020-10-30T21:16:44-07:00*%
%TF.ProjectId,Drone,44726f6e-652e-46b6-9963-61645f706362,rev?*%
%TF.SameCoordinates,Original*%
%TF.FileFunction,Legend,Bot*%
%TF.FilePolarity,Positive*%
%FSLAX46Y46*%
G04 Gerber Fmt 4.6, Leading zero omitted, Abs format (unit mm)*
G04 Created by KiCad (PCBNEW (5.1.7)-1) date 2020-10-30 21:16:44*
%MOMM*%
%LPD*%
G01*
G04 APERTURE LIST*
%ADD10C,0.250000*%
G04 APERTURE END LIST*
D10*
X94152857Y-64280714D02*
X93981428Y-64337857D01*
X93695714Y-64337857D01*
X93581428Y-64280714D01*
X93524285Y-64223571D01*
X93467142Y-64109285D01*
X93467142Y-63995000D01*
X93524285Y-63880714D01*
X93581428Y-63823571D01*
X93695714Y-63766428D01*
X93924285Y-63709285D01*
X94038571Y-63652142D01*
X94095714Y-63595000D01*
X94152857Y-63480714D01*
X94152857Y-63366428D01*
X94095714Y-63252142D01*
X94038571Y-63195000D01*
X93924285Y-63137857D01*
X93638571Y-63137857D01*
X93467142Y-63195000D01*
X93124285Y-63137857D02*
X92438571Y-63137857D01*
X92781428Y-64337857D02*
X92781428Y-63137857D01*
X92038571Y-64337857D02*
X92038571Y-63137857D01*
X91638571Y-63995000D01*
X91238571Y-63137857D01*
X91238571Y-64337857D01*
X90781428Y-63137857D02*
X90038571Y-63137857D01*
X90438571Y-63595000D01*
X90267142Y-63595000D01*
X90152857Y-63652142D01*
X90095714Y-63709285D01*
X90038571Y-63823571D01*
X90038571Y-64109285D01*
X90095714Y-64223571D01*
X90152857Y-64280714D01*
X90267142Y-64337857D01*
X90610000Y-64337857D01*
X90724285Y-64280714D01*
X90781428Y-64223571D01*
X89581428Y-63252142D02*
X89524285Y-63195000D01*
X89410000Y-63137857D01*
X89124285Y-63137857D01*
X89010000Y-63195000D01*
X88952857Y-63252142D01*
X88895714Y-63366428D01*
X88895714Y-63480714D01*
X88952857Y-63652142D01*
X89638571Y-64337857D01*
X88895714Y-64337857D01*
X87467142Y-64337857D02*
X87467142Y-63137857D01*
X87181428Y-63137857D01*
X87010000Y-63195000D01*
X86895714Y-63309285D01*
X86838571Y-63423571D01*
X86781428Y-63652142D01*
X86781428Y-63823571D01*
X86838571Y-64052142D01*
X86895714Y-64166428D01*
X87010000Y-64280714D01*
X87181428Y-64337857D01*
X87467142Y-64337857D01*
X86267142Y-64337857D02*
X86267142Y-63537857D01*
X86267142Y-63766428D02*
X86210000Y-63652142D01*
X86152857Y-63595000D01*
X86038571Y-63537857D01*
X85924285Y-63537857D01*
X85352857Y-64337857D02*
X85467142Y-64280714D01*
X85524285Y-64223571D01*
X85581428Y-64109285D01*
X85581428Y-63766428D01*
X85524285Y-63652142D01*
X85467142Y-63595000D01*
X85352857Y-63537857D01*
X85181428Y-63537857D01*
X85067142Y-63595000D01*
X85010000Y-63652142D01*
X84952857Y-63766428D01*
X84952857Y-64109285D01*
X85010000Y-64223571D01*
X85067142Y-64280714D01*
X85181428Y-64337857D01*
X85352857Y-64337857D01*
X84438571Y-63537857D02*
X84438571Y-64337857D01*
X84438571Y-63652142D02*
X84381428Y-63595000D01*
X84267142Y-63537857D01*
X84095714Y-63537857D01*
X83981428Y-63595000D01*
X83924285Y-63709285D01*
X83924285Y-64337857D01*
X82895714Y-64280714D02*
X83010000Y-64337857D01*
X83238571Y-64337857D01*
X83352857Y-64280714D01*
X83410000Y-64166428D01*
X83410000Y-63709285D01*
X83352857Y-63595000D01*
X83238571Y-63537857D01*
X83010000Y-63537857D01*
X82895714Y-63595000D01*
X82838571Y-63709285D01*
X82838571Y-63823571D01*
X83410000Y-63937857D01*
X81467142Y-63252142D02*
X81410000Y-63195000D01*
X81295714Y-63137857D01*
X81010000Y-63137857D01*
X80895714Y-63195000D01*
X80838571Y-63252142D01*
X80781428Y-63366428D01*
X80781428Y-63480714D01*
X80838571Y-63652142D01*
X81524285Y-64337857D01*
X80781428Y-64337857D01*
X80267142Y-64223571D02*
X80210000Y-64280714D01*
X80267142Y-64337857D01*
X80324285Y-64280714D01*
X80267142Y-64223571D01*
X80267142Y-64337857D01*
X79467142Y-63137857D02*
X79352857Y-63137857D01*
X79238571Y-63195000D01*
X79181428Y-63252142D01*
X79124285Y-63366428D01*
X79067142Y-63595000D01*
X79067142Y-63880714D01*
X79124285Y-64109285D01*
X79181428Y-64223571D01*
X79238571Y-64280714D01*
X79352857Y-64337857D01*
X79467142Y-64337857D01*
X79581428Y-64280714D01*
X79638571Y-64223571D01*
X79695714Y-64109285D01*
X79752857Y-63880714D01*
X79752857Y-63595000D01*
X79695714Y-63366428D01*
X79638571Y-63252142D01*
X79581428Y-63195000D01*
X79467142Y-63137857D01*
X92867142Y-66045000D02*
X92295714Y-66045000D01*
X92981428Y-66387857D02*
X92581428Y-65187857D01*
X92181428Y-66387857D01*
X91781428Y-65587857D02*
X91781428Y-66387857D01*
X91781428Y-65702142D02*
X91724285Y-65645000D01*
X91610000Y-65587857D01*
X91438571Y-65587857D01*
X91324285Y-65645000D01*
X91267142Y-65759285D01*
X91267142Y-66387857D01*
X90867142Y-65587857D02*
X90410000Y-65587857D01*
X90695714Y-65187857D02*
X90695714Y-66216428D01*
X90638571Y-66330714D01*
X90524285Y-66387857D01*
X90410000Y-66387857D01*
X90010000Y-66387857D02*
X90010000Y-65187857D01*
X89495714Y-66387857D02*
X89495714Y-65759285D01*
X89552857Y-65645000D01*
X89667142Y-65587857D01*
X89838571Y-65587857D01*
X89952857Y-65645000D01*
X90010000Y-65702142D01*
X88752857Y-66387857D02*
X88867142Y-66330714D01*
X88924285Y-66273571D01*
X88981428Y-66159285D01*
X88981428Y-65816428D01*
X88924285Y-65702142D01*
X88867142Y-65645000D01*
X88752857Y-65587857D01*
X88581428Y-65587857D01*
X88467142Y-65645000D01*
X88410000Y-65702142D01*
X88352857Y-65816428D01*
X88352857Y-66159285D01*
X88410000Y-66273571D01*
X88467142Y-66330714D01*
X88581428Y-66387857D01*
X88752857Y-66387857D01*
X87838571Y-65587857D02*
X87838571Y-66387857D01*
X87838571Y-65702142D02*
X87781428Y-65645000D01*
X87667142Y-65587857D01*
X87495714Y-65587857D01*
X87381428Y-65645000D01*
X87324285Y-65759285D01*
X87324285Y-66387857D01*
X86867142Y-65587857D02*
X86581428Y-66387857D01*
X86295714Y-65587857D02*
X86581428Y-66387857D01*
X86695714Y-66673571D01*
X86752857Y-66730714D01*
X86867142Y-66787857D01*
X85095714Y-65187857D02*
X84410000Y-65187857D01*
X84752857Y-66387857D02*
X84752857Y-65187857D01*
X84067142Y-66330714D02*
X83952857Y-66387857D01*
X83724285Y-66387857D01*
X83610000Y-66330714D01*
X83552857Y-66216428D01*
X83552857Y-66159285D01*
X83610000Y-66045000D01*
X83724285Y-65987857D01*
X83895714Y-65987857D01*
X84010000Y-65930714D01*
X84067142Y-65816428D01*
X84067142Y-65759285D01*
X84010000Y-65645000D01*
X83895714Y-65587857D01*
X83724285Y-65587857D01*
X83610000Y-65645000D01*
X82581428Y-66330714D02*
X82695714Y-66387857D01*
X82924285Y-66387857D01*
X83038571Y-66330714D01*
X83095714Y-66216428D01*
X83095714Y-65759285D01*
X83038571Y-65645000D01*
X82924285Y-65587857D01*
X82695714Y-65587857D01*
X82581428Y-65645000D01*
X82524285Y-65759285D01*
X82524285Y-65873571D01*
X83095714Y-65987857D01*
X82010000Y-65587857D02*
X82010000Y-66387857D01*
X82010000Y-65702142D02*
X81952857Y-65645000D01*
X81838571Y-65587857D01*
X81667142Y-65587857D01*
X81552857Y-65645000D01*
X81495714Y-65759285D01*
X81495714Y-66387857D01*
X80410000Y-65587857D02*
X80410000Y-66559285D01*
X80467142Y-66673571D01*
X80524285Y-66730714D01*
X80638571Y-66787857D01*
X80810000Y-66787857D01*
X80924285Y-66730714D01*
X80410000Y-66330714D02*
X80524285Y-66387857D01*
X80752857Y-66387857D01*
X80867142Y-66330714D01*
X80924285Y-66273571D01*
X80981428Y-66159285D01*
X80981428Y-65816428D01*
X80924285Y-65702142D01*
X80867142Y-65645000D01*
X80752857Y-65587857D01*
X80524285Y-65587857D01*
X80410000Y-65645000D01*
M02*
