%TF.GenerationSoftware,KiCad,Pcbnew,(5.1.7)-1*%
%TF.CreationDate,2020-10-30T21:16:44-07:00*%
%TF.ProjectId,Drone,44726f6e-652e-46b6-9963-61645f706362,rev?*%
%TF.SameCoordinates,Original*%
%TF.FileFunction,Soldermask,Bot*%
%TF.FilePolarity,Negative*%
%FSLAX46Y46*%
G04 Gerber Fmt 4.6, Leading zero omitted, Abs format (unit mm)*
G04 Created by KiCad (PCBNEW (5.1.7)-1) date 2020-10-30 21:16:44*
%MOMM*%
%LPD*%
G01*
G04 APERTURE LIST*
%ADD10O,1.700000X1.700000*%
%ADD11R,1.700000X1.700000*%
%ADD12O,1.350000X1.350000*%
%ADD13R,1.350000X1.350000*%
%ADD14C,0.100000*%
%ADD15C,3.200000*%
G04 APERTURE END LIST*
D10*
%TO.C,J1*%
X87640000Y-60800000D03*
D11*
X85100000Y-60800000D03*
D10*
X90180000Y-60800000D03*
X92720000Y-60800000D03*
%TD*%
D12*
%TO.C,J5*%
X102500000Y-81750000D03*
D13*
X102500000Y-83750000D03*
%TD*%
D12*
%TO.C,J2*%
X102500000Y-75500000D03*
D13*
X102500000Y-77500000D03*
D12*
X102500000Y-73500000D03*
%TD*%
%TO.C,J4*%
X82700000Y-92500000D03*
D13*
X80700000Y-92500000D03*
D12*
X84700000Y-92500000D03*
%TD*%
%TO.C,J3*%
X82700000Y-89900000D03*
D13*
X80700000Y-89900000D03*
D12*
X84700000Y-89900000D03*
%TD*%
%TO.C,S4*%
G36*
G01*
X75813083Y-85808489D02*
X75813083Y-85808489D01*
G75*
G02*
X75813083Y-86763083I-477297J-477297D01*
G01*
X75813083Y-86763083D01*
G75*
G02*
X74858489Y-86763083I-477297J477297D01*
G01*
X74858489Y-86763083D01*
G75*
G02*
X74858489Y-85808489I477297J477297D01*
G01*
X74858489Y-85808489D01*
G75*
G02*
X75813083Y-85808489I477297J-477297D01*
G01*
G37*
D14*
G36*
X76750000Y-86745406D02*
G01*
X77704594Y-87700000D01*
X76750000Y-88654594D01*
X75795406Y-87700000D01*
X76750000Y-86745406D01*
G37*
%TD*%
%TO.C,S3*%
G36*
G01*
X77227297Y-65777297D02*
X77227297Y-65777297D01*
G75*
G02*
X76272703Y-65777297I-477297J477297D01*
G01*
X76272703Y-65777297D01*
G75*
G02*
X76272703Y-64822703I477297J477297D01*
G01*
X76272703Y-64822703D01*
G75*
G02*
X77227297Y-64822703I477297J-477297D01*
G01*
X77227297Y-64822703D01*
G75*
G02*
X77227297Y-65777297I-477297J-477297D01*
G01*
G37*
G36*
X76290380Y-66714214D02*
G01*
X75335786Y-67668808D01*
X74381192Y-66714214D01*
X75335786Y-65759620D01*
X76290380Y-66714214D01*
G37*
%TD*%
%TO.C,S2*%
G36*
G01*
X97236917Y-67241511D02*
X97236917Y-67241511D01*
G75*
G02*
X97236917Y-66286917I477297J477297D01*
G01*
X97236917Y-66286917D01*
G75*
G02*
X98191511Y-66286917I477297J-477297D01*
G01*
X98191511Y-66286917D01*
G75*
G02*
X98191511Y-67241511I-477297J-477297D01*
G01*
X98191511Y-67241511D01*
G75*
G02*
X97236917Y-67241511I-477297J477297D01*
G01*
G37*
G36*
X96300000Y-66304594D02*
G01*
X95345406Y-65350000D01*
X96300000Y-64395406D01*
X97254594Y-65350000D01*
X96300000Y-66304594D01*
G37*
%TD*%
%TO.C,S1*%
G36*
G01*
X95708489Y-87286917D02*
X95708489Y-87286917D01*
G75*
G02*
X96663083Y-87286917I477297J-477297D01*
G01*
X96663083Y-87286917D01*
G75*
G02*
X96663083Y-88241511I-477297J-477297D01*
G01*
X96663083Y-88241511D01*
G75*
G02*
X95708489Y-88241511I-477297J477297D01*
G01*
X95708489Y-88241511D01*
G75*
G02*
X95708489Y-87286917I477297J477297D01*
G01*
G37*
G36*
X96645406Y-86350000D02*
G01*
X97600000Y-85395406D01*
X98554594Y-86350000D01*
X97600000Y-87304594D01*
X96645406Y-86350000D01*
G37*
%TD*%
D15*
%TO.C,H5*%
X72500000Y-62500000D03*
%TD*%
%TO.C,H3*%
X100500000Y-90500000D03*
%TD*%
%TO.C,H4*%
X100500000Y-62500000D03*
%TD*%
%TO.C,H6*%
X72500000Y-90500000D03*
%TD*%
M02*
