M48
; DRILL file {KiCad (5.1.7)-1} date 10/30/20 21:11:44
; FORMAT={-:-/ absolute / metric / decimal}
; #@! TF.CreationDate,2020-10-30T21:11:44-07:00
; #@! TF.GenerationSoftware,Kicad,Pcbnew,(5.1.7)-1
; #@! TF.FileFunction,Plated,1,2,PTH
FMAT,2
METRIC
T1C0.300
T2C0.400
T3C0.800
T4C1.000
%
G90
G05
T1
X75.6Y-77.6
T2
X78.0Y-69.3
X78.5Y-76.7
X79.349Y-74.573
X79.75Y-82.825
X79.95Y-79.625
X80.75Y-77.7
X81.0Y-84.5
X81.1Y-87.8
X82.217Y-76.434
X82.887Y-75.691
X83.675Y-75.075
X85.0Y-83.662
X85.7Y-73.1
X86.775Y-78.95
X87.4Y-75.5
X87.7Y-92.4
X87.725Y-82.9
X87.731Y-81.878
X88.2Y-76.1
X89.2Y-79.1
X89.275Y-77.9
X89.5Y-67.8
X89.5Y-69.525
X90.212Y-84.475
X90.3Y-77.4
X91.53Y-88.298
X91.875Y-92.1
X91.9Y-71.5
X93.075Y-88.287
X93.575Y-82.975
X93.688Y-84.475
X94.3Y-72.3
X94.8Y-80.1
X98.237Y-70.4
T3
X70.6Y-80.1
X74.4Y-72.7
X102.5Y-81.75
X102.5Y-83.75
X96.3Y-65.35
X97.714Y-66.764
X80.7Y-89.9
X82.7Y-89.9
X84.7Y-89.9
X96.186Y-87.764
X97.6Y-86.35
X102.5Y-73.5
X102.5Y-75.5
X102.5Y-77.5
X75.336Y-86.286
X76.75Y-87.7
X75.336Y-66.714
X76.75Y-65.3
X80.7Y-92.5
X82.7Y-92.5
X84.7Y-92.5
T4
X85.1Y-60.8
X87.64Y-60.8
X90.18Y-60.8
X92.72Y-60.8
T0
M30
